<svg width="405" height="134" viewBox="0 0 405 134" fill="none" xmlns="http://www.w3.org/2000/svg">
<g clip-path="url(#clip0_130_546)">
<path d="M49 38V58H20V134H0V63L25 38H49ZM82 38L57 63V120L71 134H123V114H77V96H106L131 71V52L117 38H82ZM111 58V76H77V58H111ZM221 0H201V24L215 38H172L147 63V120L161 134H187L201 120V134H221V0ZM201 114H167V58H201V114ZM266 38L241 63V120L255 134H290L315 109V52L301 38H266ZM295 58V114H261V58H295ZM331 38V62L363 94H345L331 108V134H351V116L368 99L385 116V134H405V108L373 76H391L405 62V38H385V54L368 71L351 54V38H331Z" fill="#3344FF"/>
</g>
<defs>
<clipPath id="clip0_130_546">
<rect width="405" height="134" fill="white"/>
</clipPath>
</defs>
</svg>
